# xmcd
#
# Track frame offsets: 
#        150
#        16947
#        28735
#        47677
#        58192
#        69940
#        79897
#        92742
#        106672
#        116945
#        129765
#        166255
#        176787
#        190897
#        202405
#        218185
#        228810
#        249167
#
# Disc length: 3459 seconds
#
# Revision: 0
# Processed by: cddbd v1.5.1PL2 Copyright (c) Steve Scherf et al.
# Submitted via: ExactAudioCopy v0.95b3
#
DISCID=f30d8112
DTITLE=Andy Cohen - Oh Glory, How Happy I Am
DYEAR=1997
DGENRE=Gospel
TTITLE0=Andy Cohen - Oh Glory, How Happy I Am
TTITLE1=Andy Cohen - Twelve Gates to the City
TTITLE2=Andy Cohen - Samson and Delilah
TTITLE3=Andy Cohen - I Am the Light of this World
TTITLE4=Andy Cohen - I'll Be Alright Someday
TTITLE5=Andy Cohen - Pure Religion
TTITLE6=Andy Cohen - Goin' to Sit Down on the Banks of the River
TTITLE7=Andy Cohen - I'm Glad I'm in that Number
TTITLE8=Andy Cohen - God's Gonna Separate
TTITLE9=Andy Cohen - Children of Zion
TTITLE10=Andy Cohen - Crucifixion
TTITLE11=Andy Cohen - You Got to Move
TTITLE12=Andy Cohen - Get Right Church
TTITLE13=Andy Cohen - I Belong to the Band
TTITLE14=Andy Cohen - Tryin' to Get to Heaven in Due Time
TTITLE15=Andy Cohen - A Little More Faith
TTITLE16=Andy Cohen - I Will Do My Last Singing in this Land
TTITLE17=Andy Cohen and Larkin Bryant - Oh Glory, How Happy I Am
EXTD=
EXTT0=
EXTT1=
EXTT2=
EXTT3=
EXTT4=
EXTT5=
EXTT6=
EXTT7=
EXTT8=
EXTT9=
EXTT10=
EXTT11=
EXTT12=
EXTT13=
EXTT14=
EXTT15=
EXTT16=
EXTT17=
PLAYORDER=
